Coordinates
version=1
nRows=19
nColumns=24
inDegrees=yes

Units are S.I. units (second, meters, Newtons, ...)
Angles are in degrees.

endheader
time	pelvis_tilt	pelvis_list	pelvis_rotation	pelvis_tx	pelvis_ty	pelvis_tz	hip_flexion_r	hip_adduction_r	hip_rotation_r	knee_angle_r	ankle_angle_r	subtalar_angle_r	mtp_angle_r	hip_flexion_l	hip_adduction_l	hip_rotation_l	knee_angle_l	ankle_angle_l	subtalar_angle_l	mtp_angle_l	lumbar_extension	lumbar_bending	lumbar_rotation
      0.97483333	     -3.92340674	      4.80938755	     -0.75881460	     -0.16360142	      1.00019760	      0.32391548	    -10.33376663	     -2.33563968	     -1.63178138	    -10.52643950	     13.20971801	     -2.53095735	      1.20339767	     20.77075297	      6.60295968	      1.73741470	      3.44117564	      0.48107876	     -7.77787338	      1.72434464	    -10.02996643	     -0.25005247	      6.91566432
      0.97900000	     -3.89725666	      4.91145451	     -0.76708052	     -0.15783277	      0.99944294	      0.32351620	    -10.42693195	     -2.52439265	     -1.95107867	    -11.14067335	     13.45771595	     -1.93017694	      1.46384787	     20.71871672	      6.81139492	      1.88074192	      3.51031451	      0.46812203	     -7.80670738	      1.77898551	    -10.01214303	     -0.36496895	      6.83659301
      0.98316667	     -3.90188560	      4.93294951	     -0.79275706	     -0.15208856	      0.99872572	      0.32323364	    -10.53965026	     -2.59467209	     -1.95415159	    -11.60672923	     13.33956286	     -1.92889377	      1.50121351	     20.71487802	      6.92194982	      2.03025916	      3.47216371	      0.46917390	     -7.77433104	      1.78855672	     -9.98597585	     -0.37828414	      6.82666319
      0.98733333	     -3.91295428	      5.04867698	     -0.78838631	     -0.14628954	      0.99794969	      0.32278781	    -10.55251817	     -2.80464636	     -2.28035270	    -12.30663439	     13.54925485	     -1.33211614	      1.86826031	     20.72017016	      7.15123635	      2.26962838	      3.35778566	      0.35112451	     -8.01513590	      1.85968041	     -9.91542280	     -0.48128329	      6.72254163
      0.99150000	     -3.89084253	      5.14967704	     -0.78350920	     -0.14047207	      0.99725506	      0.32239460	    -10.62179529	     -2.98397443	     -2.48854134	    -12.95117839	     13.58890214	     -0.99639900	      2.35169775	     20.69238545	      7.36221011	      2.53692524	      3.16894213	      0.19905212	     -8.27583952	      1.95419926	     -9.89856777	     -0.58852508	      6.63914048
      0.99566667	     -3.87386484	      5.22888784	     -0.75701781	     -0.13465430	      0.99658530	      0.32201059	    -10.70116191	     -3.12467356	     -2.62625242	    -13.54390162	     13.40235753	     -0.96526383	      8.50704665	     20.69646093	      7.55616685	      2.82379038	      2.86009132	      0.03006528	     -8.57272833	      3.13908829	     -9.88342323	     -0.68620284	      6.57763964
      0.99983333	     -3.83670798	      5.36157490	     -0.74870516	     -0.12878530	      0.99595513	      0.32161675	    -10.75510750	     -3.34093574	     -2.82581065	    -14.25339998	     13.38269596	     -0.65517167	      8.56459745	     20.68187184	      7.80176604	      3.03766428	      2.49019143	     -0.18081941	     -8.80701088	      3.13568617	     -9.87392446	     -0.83141489	      6.47891020
      1.00400000	     -3.81053756	      5.48084019	     -0.71935890	     -0.12291770	      0.99531599	      0.32119366	    -10.77928035	     -3.53958025	     -3.03036413	    -15.00034757	     13.32686996	     -0.37895444	      8.67199454	     20.68658943	      8.04173009	      3.33686397	      2.04964625	     -0.44331626	     -9.19842259	      3.14267523	     -9.85284157	     -0.96944328	      6.38023296
      1.00816667	     -3.79039008	      5.60438738	     -0.68537933	     -0.11704229	      0.99468727	      0.32076081	    -10.77788140	     -3.74359700	     -3.22108757	    -15.78302201	     13.22634166	     -0.12905269	      8.83634296	     20.70657778	      8.28836396	      3.64797515	      1.54674534	     -0.76541974	     -9.65373641	      3.15913006	     -9.82827407	     -1.09833021	      6.27578941
      1.01233333	     -3.76046080	      5.73111026	     -0.63976071	     -0.11115197	      0.99408302	      0.32031106	    -10.76840192	     -3.95153149	     -3.42080240	    -16.60158333	     13.08266986	      0.10320836	      9.05346496	     20.72375525	      8.54346813	      3.96722039	      0.98600723	     -1.12169778	    -10.14877865	      3.18488954	     -9.81361675	     -1.24225458	      6.16003141
      1.01650000	     -3.72395469	      5.86808243	     -0.59327443	     -0.10524993	      0.99350928	      0.31985384	    -10.74076873	     -4.17415487	     -3.62340719	    -17.46733785	     12.90094267	      0.33527158	      9.34371595	     20.73996296	      8.81110465	      4.28466803	      0.37954928	     -1.53412012	    -10.70491874	      3.21921243	     -9.80325623	     -1.39428456	      6.04059864
      1.02066667	     -3.69091364	      6.00607126	     -0.54071334	     -0.09934601	      0.99294917	      0.31939333	    -10.68562227	     -4.39829032	     -3.81788094	    -18.37443794	     12.65999752	      0.52793819	      9.68353974	     20.76820386	      9.08127368	      4.59528819	     -0.27216530	     -1.96686005	    -11.26776490	      3.25734578	     -9.79044586	     -1.55084613	      5.91584871
      1.02483333	     -3.65814227	      6.11516523	     -0.47927216	     -0.09344194	      0.99242818	      0.31894228	    -10.63393438	     -4.57891623	     -3.94276178	    -19.24187083	     12.20933962	      0.46124144	     15.28012897	     20.80475897	      9.32646938	      4.94636489	     -0.97064548	     -2.44152001	    -11.96606261	      3.89794197	     -9.78159306	     -1.68400781	      5.83210137
      1.02900000	     -3.59605535	      6.28272819	     -0.42783904	     -0.08752141	      0.99193249	      0.31845256	    -10.54036332	     -4.85504996	     -4.19513205	    -20.28042321	     11.91057406	      0.77096302	     15.36500766	     20.83296381	      9.62795602	      5.12011191	     -1.72828309	     -2.85257999	    -12.37769450	      3.89074036	     -9.80526792	     -1.86678923	      5.67904966
      1.03316667	     -3.55768546	      6.41597949	     -0.36530524	     -0.08162870	      0.99143661	      0.31796343	    -10.41108440	     -5.08256514	     -4.37469721	    -21.31831083	     11.52186795	      0.94411301	     15.55732533	     20.88875460	      9.90067611	      5.38898779	     -2.51194490	     -3.33050114	    -13.02607879	      3.88346944	     -9.80938023	     -2.01165718	      5.55097724
      1.03733333	     -3.52818193	      6.56697388	     -0.31416316	     -0.07572801	      0.99096086	      0.31749511	    -10.22492226	     -5.33835671	     -4.55670809	    -22.43825568	     11.04810784	      1.07241584	     15.79606712	     20.94495969	     10.18330263	      5.62006540	     -3.28677076	     -3.78123627	    -13.58208488	      3.87482506	     -9.78858351	     -2.18959562	      5.42395945
      1.04150000	     -3.46573509	      6.70239723	     -0.25696246	     -0.06985666	      0.99054398	      0.31700374	    -10.05566258	     -5.58072744	     -4.73308475	    -23.57548808	     10.53834442	      1.22663398	     16.22012168	     20.98578217	     10.45825136	      5.84540269	     -4.11661707	     -4.24512747	    -14.24745862	      3.86001890	     -9.82452888	     -2.33946296	      5.29588490
      1.04566667	     -3.44219673	      6.84540382	     -0.21683323	     -0.06397620	      0.99009993	      0.31655671	     -9.78910822	     -5.83932832	     -4.89200256	    -24.80683464	      9.91514588	      1.28930683	     16.61034027	     21.05794026	     10.72522630	      6.00522953	     -4.93217033	     -4.60962835	    -14.71471346	      3.84287167	     -9.79044218	     -2.51934792	      5.18231045
      1.04983333	     -3.34819151	      6.99172732	     -0.17740263	     -0.05810684	      0.98979298	      0.31609871	     -9.59625185	     -6.10280748	     -5.03217471	    -26.00052133	      9.11724703	      1.23910563	     23.47542225	     21.05866673	     11.00340308	      6.18650832	     -5.77203047	     -4.95010255	    -15.27557046	      3.54150672	     -9.87442499	     -2.68726020	      5.09237808
